<svg width="67" height="81" viewBox="0 0 67 81" fill="none" xmlns="http://www.w3.org/2000/svg">
<g filter="url(#filter0_d_355_1053)">
<path d="M34.4018 0C34.2557 0 34.1339 0 33.9878 0C33.8417 0 33.7199 0 33.5738 0C20.5693 0 10 10.5666 10 23.5923C10 28.4374 11.5099 33.2094 14.2861 37.1536C15.723 39.1988 17.5008 41.0004 19.4977 42.4856C20.5449 43.2647 21.6164 43.9464 22.761 44.5308C23.9543 45.1394 25.4399 45.8942 26.6088 46.5516C28.1187 47.3794 29.0441 48.0854 29.8234 49.6193C30.5053 50.9584 31.1629 52.3218 31.8691 53.6609C32.3318 54.5131 33.1355 54.9513 33.9635 55C34.7915 54.9513 35.6195 54.5131 36.0578 53.6609C36.7641 52.3218 37.4216 50.9584 38.1035 49.6193C38.8828 48.0854 39.8082 47.4037 41.3181 46.5516C42.5114 45.8942 43.997 45.1394 45.1659 44.5308C46.3105 43.9464 47.382 43.2647 48.4292 42.4856C50.4262 41.0004 52.204 39.1988 53.6408 37.1536C56.4414 33.2094 57.9269 28.4374 57.9269 23.5923C58 10.5666 47.4307 0 34.4018 0Z" fill="white"/>
<path d="M34.4018 0C34.2557 0 34.1339 0 33.9878 0C33.8417 0 33.7199 0 33.5738 0C20.5693 0 10 10.5666 10 23.5923C10 28.4374 11.5099 33.2094 14.2861 37.1536C15.723 39.1988 17.5008 41.0004 19.4977 42.4856C20.5449 43.2647 21.6164 43.9464 22.761 44.5308C23.9543 45.1394 25.4399 45.8942 26.6088 46.5516C28.1187 47.3794 29.0441 48.0854 29.8234 49.6193C30.5053 50.9584 31.1629 52.3218 31.8691 53.6609C32.3318 54.5131 33.1355 54.9513 33.9635 55C34.7915 54.9513 35.6195 54.5131 36.0578 53.6609C36.7641 52.3218 37.4216 50.9584 38.1035 49.6193C38.8828 48.0854 39.8082 47.4037 41.3181 46.5516C42.5114 45.8942 43.997 45.1394 45.1659 44.5308C46.3105 43.9464 47.382 43.2647 48.4292 42.4856C50.4262 41.0004 52.204 39.1988 53.6408 37.1536C56.4414 33.2094 57.9269 28.4374 57.9269 23.5923C58 10.5666 47.4307 0 34.4018 0Z" fill="#56C9C0" fill-opacity="0.4"/>
<path d="M34.4018 0C34.2557 0 34.1339 0 33.9878 0C33.8417 0 33.7199 0 33.5738 0C20.5693 0 10 10.5666 10 23.5923C10 28.4374 11.5099 33.2094 14.2861 37.1536C15.723 39.1988 17.5008 41.0004 19.4977 42.4856C20.5449 43.2647 21.6164 43.9464 22.761 44.5308C23.9543 45.1394 25.4399 45.8942 26.6088 46.5516C28.1187 47.3794 29.0441 48.0854 29.8234 49.6193C30.5053 50.9584 31.1629 52.3218 31.8691 53.6609C32.3318 54.5131 33.1355 54.9513 33.9635 55C34.7915 54.9513 35.6195 54.5131 36.0578 53.6609C36.7641 52.3218 37.4216 50.9584 38.1035 49.6193C38.8828 48.0854 39.8082 47.4037 41.3181 46.5516C42.5114 45.8942 43.997 45.1394 45.1659 44.5308C46.3105 43.9464 47.382 43.2647 48.4292 42.4856C50.4262 41.0004 52.204 39.1988 53.6408 37.1536C56.4414 33.2094 57.9269 28.4374 57.9269 23.5923C58 10.5666 47.4307 0 34.4018 0Z" fill="url(#paint0_radial_355_1053)"/>
<path d="M33.5742 1H34.4014C46.8793 1 56.9967 11.1192 56.9268 23.5869V23.5928C56.9267 28.2354 55.5025 32.8035 52.8252 36.5742L52.8223 36.5791C51.4492 38.5333 49.747 40.2594 47.832 41.6836C46.8235 42.4339 45.7991 43.0841 44.7109 43.6396L44.7041 43.6436C43.5496 44.2447 42.0429 45.0109 40.8359 45.6758L40.8262 45.6807C39.3405 46.5192 38.2621 47.2782 37.3848 48.8428L37.2119 49.166C36.5148 50.535 35.8768 51.8596 35.1729 53.1943L35.1689 53.2031C34.9228 53.6817 34.4632 53.9475 33.9619 53.9941C33.5401 53.9538 33.1417 53.7543 32.8643 53.3691L32.748 53.1836C32.398 52.5196 32.0643 51.8581 31.7314 51.1924L30.7148 49.166C29.9223 47.6063 28.9681 46.7759 27.668 46.0039L27.0898 45.6748C25.9007 45.0065 24.3994 44.2434 23.2158 43.6396C22.2636 43.1535 21.3602 42.5949 20.4736 41.96L20.0947 41.6836L19.7383 41.4131C17.9682 40.0428 16.3918 38.4114 15.1045 36.5791L15.1035 36.5781L14.8584 36.2217C12.3578 32.5171 11.0001 28.0873 11 23.5928C11 11.1189 21.1224 1 33.5742 1Z" stroke="url(#paint1_linear_355_1053)" stroke-width="2"/>
</g>
<g filter="url(#filter1_i_355_1053)">
<path d="M43.0003 14L41.0003 16M41.0003 16L44.0003 19M41.0003 16L37.5003 19.5M33.3903 23.61C33.9066 24.1195 34.3171 24.726 34.598 25.3948C34.879 26.0635 35.0249 26.7813 35.0273 27.5066C35.0297 28.232 34.8887 28.9507 34.6122 29.6213C34.3357 30.2919 33.9293 30.9012 33.4164 31.4141C32.9035 31.9271 32.2942 32.3334 31.6236 32.6099C30.953 32.8864 30.2343 33.0275 29.5089 33.025C28.7835 33.0226 28.0658 32.8767 27.3971 32.5958C26.7283 32.3148 26.1217 31.9043 25.6123 31.388C24.6104 30.3507 24.056 28.9614 24.0686 27.5193C24.0811 26.0772 24.6595 24.6977 25.6793 23.678C26.699 22.6583 28.0785 22.0798 29.5206 22.0673C30.9627 22.0548 32.352 22.6091 33.3893 23.611L33.3903 23.61ZM33.3903 23.61L37.5003 19.5M37.5003 19.5L40.5003 22.5" stroke="#F1FAEE" stroke-width="2.5" stroke-linecap="round" stroke-linejoin="round"/>
</g>
<defs>
<filter id="filter0_d_355_1053" x="-6" y="0" width="79.9277" height="91" filterUnits="userSpaceOnUse" color-interpolation-filters="sRGB">
<feFlood flood-opacity="0" result="BackgroundImageFix"/>
<feColorMatrix in="SourceAlpha" type="matrix" values="0 0 0 0 0 0 0 0 0 0 0 0 0 0 0 0 0 0 127 0" result="hardAlpha"/>
<feOffset dy="20"/>
<feGaussianBlur stdDeviation="8"/>
<feComposite in2="hardAlpha" operator="out"/>
<feColorMatrix type="matrix" values="0 0 0 0 0 0 0 0 0 0 0 0 0 0 0 0 0 0 0.12 0"/>
<feBlend mode="normal" in2="BackgroundImageFix" result="effect1_dropShadow_355_1053"/>
<feBlend mode="normal" in="SourceGraphic" in2="effect1_dropShadow_355_1053" result="shape"/>
</filter>
<filter id="filter1_i_355_1053" x="22" y="12" width="24" height="25" filterUnits="userSpaceOnUse" color-interpolation-filters="sRGB">
<feFlood flood-opacity="0" result="BackgroundImageFix"/>
<feBlend mode="normal" in="SourceGraphic" in2="BackgroundImageFix" result="shape"/>
<feColorMatrix in="SourceAlpha" type="matrix" values="0 0 0 0 0 0 0 0 0 0 0 0 0 0 0 0 0 0 127 0" result="hardAlpha"/>
<feOffset dy="1"/>
<feGaussianBlur stdDeviation="2"/>
<feComposite in2="hardAlpha" operator="arithmetic" k2="-1" k3="1"/>
<feColorMatrix type="matrix" values="0 0 0 0 1 0 0 0 0 1 0 0 0 0 1 0 0 0 0.25 0"/>
<feBlend mode="normal" in2="shape" result="effect1_innerShadow_355_1053"/>
</filter>
<radialGradient id="paint0_radial_355_1053" cx="0" cy="0" r="1" gradientUnits="userSpaceOnUse" gradientTransform="translate(51.5 56) rotate(-122.074) scale(88.5099 71.0781)">
<stop offset="0.217117" stop-color="#56C9C0"/>
<stop offset="1" stop-color="#56C9C0" stop-opacity="0.2"/>
</radialGradient>
<linearGradient id="paint1_linear_355_1053" x1="16.5" y1="-17.5" x2="54" y2="56" gradientUnits="userSpaceOnUse">
<stop offset="0.172543" stop-color="#F1FAEE" stop-opacity="0.24"/>
<stop offset="1" stop-color="#56C9C0" stop-opacity="0.4"/>
</linearGradient>
</defs>
</svg>
