<svg width="14" height="14" viewBox="0 0 14 14" fill="none" xmlns="http://www.w3.org/2000/svg">
<path d="M6.29244 0.84107C6.59261 0.272153 7.40739 0.272154 7.70756 0.841071L9.26163 3.78658C9.37738 4.00598 9.58836 4.15926 9.83279 4.20155L13.1144 4.76935C13.7482 4.87902 14 5.65393 13.5517 6.11521L11.2306 8.50343C11.0577 8.68131 10.9771 8.92934 11.0124 9.17487L11.4864 12.4713C11.578 13.108 10.9188 13.5869 10.3416 13.3031L7.353 11.8336C7.13039 11.7241 6.86961 11.7241 6.647 11.8336L3.6584 13.3031C3.08117 13.5869 2.42199 13.108 2.51355 12.4713L2.98761 9.17487C3.02292 8.92933 2.94233 8.68131 2.76945 8.50343L0.448334 6.1152C1.71661e-05 5.65393 0.251801 4.87902 0.88563 4.76935L4.16721 4.20155C4.41164 4.15926 4.62262 4.00598 4.73837 3.78658L6.29244 0.84107Z" fill="#FFB84C"/>
</svg>
